<?xml version="1.0" encoding="UTF-8" standalone="no"?>
<!-- Created with Inkscape (http://www.inkscape.org/) -->

<svg
   xmlns:dc="http://purl.org/dc/elements/1.1/"
   xmlns:cc="http://creativecommons.org/ns#"
   xmlns:rdf="http://www.w3.org/1999/02/22-rdf-syntax-ns#"
   xmlns:svg="http://www.w3.org/2000/svg"
   xmlns="http://www.w3.org/2000/svg"
   xmlns:sodipodi="http://sodipodi.sourceforge.net/DTD/sodipodi-0.dtd"
   xmlns:inkscape="http://www.inkscape.org/namespaces/inkscape"
   width="19.885843"
   height="19.885843"
   viewBox="0 0 5.2614625 5.2614625"
   version="1.1"
   id="svg8"
   inkscape:version="0.92.5 (2060ec1f9f, 2020-04-08)"
   sodipodi:docname="in-progress.svg">
  <defs
     id="defs2" />
  <sodipodi:namedview
     id="base"
     pagecolor="#ffffff"
     bordercolor="#666666"
     borderopacity="1.0"
     inkscape:pageopacity="0.0"
     inkscape:pageshadow="2"
     inkscape:zoom="5.6"
     inkscape:cx="70.298832"
     inkscape:cy="61.748349"
     inkscape:document-units="mm"
     inkscape:current-layer="layer1"
     showgrid="false"
     fit-margin-top="0"
     fit-margin-left="0"
     fit-margin-right="0"
     fit-margin-bottom="0"
     units="px"
     inkscape:window-width="1920"
     inkscape:window-height="1017"
     inkscape:window-x="1912"
     inkscape:window-y="-8"
     inkscape:window-maximized="1" />
  <metadata
     id="metadata5">
    <rdf:RDF>
      <cc:Work
         rdf:about="">
        <dc:format>image/svg+xml</dc:format>
        <dc:type
           rdf:resource="http://purl.org/dc/dcmitype/StillImage" />
        <dc:title></dc:title>
      </cc:Work>
    </rdf:RDF>
  </metadata>
  <g
     inkscape:label="Layer 1"
     inkscape:groupmode="layer"
     id="layer1"
     transform="translate(-10.885715,-210.54925)">
    <g
       id="g912"
       transform="matrix(0.03883954,0,0,0.03883954,9.7582587,208.07466)">
      <g
         transform="matrix(0.26458333,0,0,0.26458333,29.028572,63.713096)"
         id="g885">
        <g
           id="g819">
	<g
   id="g817">
		<path
   inkscape:connector-curvature="0"
   d="m 347.216,301.211 -71.387,-53.54 V 138.609 c 0,-10.966 -8.864,-19.83 -19.83,-19.83 -10.966,0 -19.83,8.864 -19.83,19.83 v 118.978 c 0,6.246 2.935,12.136 7.932,15.864 l 79.318,59.489 c 3.569,2.677 7.734,3.966 11.878,3.966 6.048,0 11.997,-2.717 15.884,-7.952 6.585,-8.746 4.8,-21.179 -3.965,-27.743 z"
   id="path815" />

	</g>

</g>
        <g
           id="g825">
	<g
   id="g823">
		<path
   inkscape:connector-curvature="0"
   d="M 256,0 C 114.833,0 0,114.833 0,256 0,397.167 114.833,512 256,512 397.167,512 512,397.167 512,256 512,114.833 397.167,0 256,0 Z m 0,472.341 C 136.725,472.341 39.659,375.275 39.659,256 39.659,136.725 136.725,39.659 256,39.659 c 119.295,0 216.341,97.066 216.341,216.341 0,119.275 -97.066,216.341 -216.341,216.341 z"
   id="path821" />

	</g>

</g>
        <g
           id="g827">
</g>
        <g
           id="g829">
</g>
        <g
           id="g831">
</g>
        <g
           id="g833">
</g>
        <g
           id="g835">
</g>
        <g
           id="g837">
</g>
        <g
           id="g839">
</g>
        <g
           id="g841">
</g>
        <g
           id="g843">
</g>
        <g
           id="g845">
</g>
        <g
           id="g847">
</g>
        <g
           id="g849">
</g>
        <g
           id="g851">
</g>
        <g
           id="g853">
</g>
        <g
           id="g855">
</g>
      </g>
      <path
         transform="scale(0.26458333)"
         inkscape:connector-curvature="0"
         id="path887"
         d="m 344.8491,711.62561 c -55.22277,-6.99075 -99.96886,-29.27259 -136.30931,-67.87688 -26.98327,-28.6642 -45.04631,-63.09705 -53.94186,-102.8272 -2.8844,-12.88262 -3.32026,-18.67365 -3.32026,-44.115 0,-25.44134 0.43586,-31.23237 3.32026,-44.115 8.89555,-39.73014 26.95859,-74.163 53.94186,-102.8272 32.294,-34.30575 73.46362,-56.90599 119.16645,-65.41692 20.33467,-3.7868 60.11619,-3.44082 79.4968,0.69137 44.5209,9.49241 78.40025,27.92152 110.56683,60.14427 38.28674,38.35358 58.75166,82.52198 62.69093,135.30276 3.63914,48.75917 -8.8126,95.58911 -36.50556,137.29432 -17.67833,26.62335 -52.29713,56.8677 -82.44104,72.02376 -14.67409,7.37799 -41.07791,16.16122 -57.37939,19.08724 -12.57414,2.25699 -49.35614,3.89148 -59.28571,2.63448 z M 454.44471,575.84945 c 7.58978,-3.60159 10.66909,-9.5127 10.04356,-19.27986 -0.28511,-4.45174 -1.44556,-9.21887 -2.57877,-10.59361 -1.13323,-1.37475 -18.61397,-14.93829 -38.84611,-30.1412 l -36.78572,-27.64166 v -56.46449 c 0,-52.71671 -0.18061,-56.81629 -2.72118,-61.76472 -3.59742,-7.00693 -9.51913,-10.30023 -18.52096,-10.30023 -6.04429,0 -8.05504,0.72451 -12.26193,4.4182 -2.76763,2.43002 -5.71883,6.7693 -6.5582,9.64286 -1.01147,3.46268 -1.37874,26.5084 -1.08909,68.33577 0.4266,61.59894 0.50918,63.2077 3.44639,67.14285 3.04691,4.08213 83.15093,65.33923 88.41926,67.61593 4.63093,2.00124 12.06183,1.58832 17.45275,-0.96984 z"
         style="opacity:1;fill:#ffdb63;fill-opacity:1;fill-rule:evenodd;stroke:none;stroke-width:32.39595032;stroke-linecap:round;stroke-linejoin:miter;stroke-miterlimit:4;stroke-dasharray:none;stroke-opacity:1;paint-order:fill markers stroke" />
    </g>
  </g>
</svg>
